<svg width="24" height="24" viewBox="0 0 24 24" fill="none" xmlns="http://www.w3.org/2000/svg">
<rect x="1.125" y="1.125" width="21.75" height="21.75" rx="0.875" stroke="url(#paint0_linear_56_313)" stroke-width="0.25"/>
<path d="M12.5283 3.17871C13.4068 4.43582 14.1184 5.21865 14.9023 5.61914C15.6785 6.0156 16.5454 6.04622 17.7598 5.74707L17.79 5.86816L17.8193 5.98926C17.8062 5.99249 17.7924 5.99391 17.7793 5.99707L18.2812 6.0957L15.9473 18.0957L15.7246 19.2402L15.0488 18.29L12.3828 14.54L13.1973 13.96L15.1875 16.7588L17.2588 6.10547C16.2843 6.27685 15.5063 6.20867 14.7881 5.8418C13.9572 5.41722 13.2265 4.60508 12.3623 3.375H9.78906C8.20487 4.63711 7.23742 5.83532 5.47949 8.40527L6.61133 9.61719L8.09277 10.8066L9.63281 7.77539L9.79199 7.46094L9.86621 7.80566C10.3725 10.1553 10.6174 11.9821 10.6123 13.7891C10.6072 15.5958 10.3522 17.3783 9.86621 19.6396L9.62207 19.5869C10.1062 17.3342 10.3573 15.5706 10.3623 13.7881C10.367 12.0947 10.1473 10.3793 9.69336 8.20605L8.24707 11.0576L8.17676 11.1953L8.05664 11.0986L6.44824 9.80664L6.43457 9.79492L5.22754 8.50293L5.15918 8.42969L5.21582 8.34668C7.02592 5.69583 8.01561 4.46179 9.66699 3.15234L9.70117 3.125H12.4912L12.5283 3.17871Z" fill="url(#paint1_linear_56_313)"/>
<defs>
<linearGradient id="paint0_linear_56_313" x1="12" y1="1" x2="12" y2="23" gradientUnits="userSpaceOnUse">
<stop stop-color="#273B4B"/>
<stop offset="1" stop-color="#009688"/>
</linearGradient>
<linearGradient id="paint1_linear_56_313" x1="11.6401" y1="3" x2="11.6401" y2="20.8057" gradientUnits="userSpaceOnUse">
<stop stop-color="#009688"/>
<stop offset="1" stop-color="#273B4B"/>
</linearGradient>
</defs>
</svg>
