<svg width="24" height="24" viewBox="0 0 24 24" fill="none" xmlns="http://www.w3.org/2000/svg">
<mask id="path-1-inside-1_50_28" fill="white">
<path d="M14.75 0C14.8881 3.22128e-08 15 0.111929 15 0.25V1.09082H19C20.1045 1.09082 21 1.98629 21 3.09082V22L20.9893 22.2041C20.8938 23.1456 20.1456 23.8938 19.2041 23.9893L19 24H6L5.7959 23.9893C4.85438 23.8938 4.10624 23.1456 4.01074 22.2041L4 22V3.09082C4.00005 1.98629 4.89546 1.09082 6 1.09082H10V0.25C10 0.111929 10.1119 2.0133e-09 10.25 0H14.75ZM6 1.34082C5.03353 1.34082 4.25005 2.12436 4.25 3.09082V22C4.25005 22.9665 5.03353 23.75 6 23.75H19C19.9665 23.75 20.75 22.9665 20.75 22V3.09082C20.75 2.12436 19.9665 1.34082 19 1.34082H17V3.02246C17 3.16053 16.8881 3.27246 16.75 3.27246H8.25C8.11193 3.27246 8 3.16053 8 3.02246V1.34082H6Z"/>
</mask>
<path d="M14.75 0V-1V-1V0ZM15 0.25H16H15ZM15 1.09082H14V2.09082H15V1.09082ZM21 3.09082H22V3.09078L21 3.09082ZM21 22L21.9986 22.0526L22 22.0263V22H21ZM20.9893 22.2041L21.9842 22.305L21.9866 22.2809L21.9879 22.2567L20.9893 22.2041ZM19.2041 23.9893L19.2567 24.9879L19.2809 24.9866L19.305 24.9842L19.2041 23.9893ZM19 24V25H19.0263L19.0526 24.9986L19 24ZM6 24L5.94744 24.9986L5.9737 25H6V24ZM5.7959 23.9893L5.69503 24.9842L5.71914 24.9866L5.74334 24.9879L5.7959 23.9893ZM4.01074 22.2041L3.01212 22.2567L3.0134 22.2809L3.01585 22.305L4.01074 22.2041ZM4 22H3V22.0263L3.00138 22.0526L4 22ZM4 3.09082L3 3.09078V3.09082H4ZM6 1.09082V0.0908203V1.09082ZM10 1.09082V2.09082H11V1.09082H10ZM10 0.25L9 0.249999V0.25H10ZM10.25 0V-1V0ZM4.25 3.09082L3.25 3.09077V3.09082H4.25ZM4.25 22H3.25V22L4.25 22ZM20.75 22L21.75 22V22H20.75ZM20.75 3.09082H21.75V3.09077L20.75 3.09082ZM17 1.34082V0.34082H16V1.34082H17ZM16.75 3.27246V4.27246V3.27246ZM8.25 3.27246L8.25 4.27246H8.25V3.27246ZM8 1.34082H9V0.34082H8V1.34082ZM14.75 0V1C14.3358 1 14 0.664214 14 0.25H15H16C16 -0.440356 15.4404 -1 14.75 -1V0ZM15 0.25H14V1.09082H15H16V0.25H15ZM15 1.09082V2.09082H19V1.09082V0.0908203H15V1.09082ZM19 1.09082V2.09082C19.5522 2.09082 20 2.53854 20 3.09086L21 3.09082L22 3.09078C21.9999 1.43404 20.6569 0.0908203 19 0.0908203V1.09082ZM21 3.09082H20V22H21H22V3.09082H21ZM21 22L20.0014 21.9474L19.9906 22.1515L20.9893 22.2041L21.9879 22.2567L21.9986 22.0526L21 22ZM20.9893 22.2041L19.9944 22.1032C19.9468 22.5723 19.5722 22.9468 19.1032 22.9944L19.2041 23.9893L19.305 24.9842C20.719 24.8408 21.8407 23.719 21.9842 22.305L20.9893 22.2041ZM19.2041 23.9893L19.1515 22.9906L18.9474 23.0014L19 24L19.0526 24.9986L19.2567 24.9879L19.2041 23.9893ZM19 24V23H6V24V25H19V24ZM6 24L6.05256 23.0014L5.84846 22.9906L5.7959 23.9893L5.74334 24.9879L5.94744 24.9986L6 24ZM5.7959 23.9893L5.89676 22.9944C5.42778 22.9468 5.05322 22.5723 5.00564 22.1032L4.01074 22.2041L3.01585 22.305C3.15926 23.7189 4.28097 24.8408 5.69503 24.9842L5.7959 23.9893ZM4.01074 22.2041L5.00936 22.1515L4.99862 21.9474L4 22L3.00138 22.0526L3.01212 22.2567L4.01074 22.2041ZM4 22H5V3.09082H4H3V22H4ZM4 3.09082L5 3.09086C5.00002 2.53854 5.44779 2.09082 6 2.09082V1.09082V0.0908203C4.34313 0.0908203 3.00007 1.43404 3 3.09078L4 3.09082ZM6 1.09082V2.09082H10V1.09082V0.0908203H6V1.09082ZM10 1.09082H11V0.25H10H9V1.09082H10ZM10 0.25L11 0.250001C11 0.664213 10.6642 1 10.25 1V0V-1C9.55964 -1 9 -0.440355 9 0.249999L10 0.25ZM10.25 0V1H14.75V0V-1H10.25V0ZM6 1.34082V0.34082C4.4812 0.34082 3.25008 1.57212 3.25 3.09077L4.25 3.09082L5.25 3.09087C5.25002 2.67661 5.58587 2.34082 6 2.34082V1.34082ZM4.25 3.09082H3.25V22H4.25H5.25V3.09082H4.25ZM4.25 22L3.25 22C3.25007 23.5187 4.4812 24.75 6 24.75V23.75V22.75C5.58586 22.75 5.25002 22.4142 5.25 22L4.25 22ZM6 23.75V24.75H19V23.75V22.75H6V23.75ZM19 23.75V24.75C20.5188 24.75 21.7499 23.5187 21.75 22L20.75 22L19.75 22C19.75 22.4142 19.4141 22.75 19 22.75V23.75ZM20.75 22H21.75V3.09082H20.75H19.75V22H20.75ZM20.75 3.09082L21.75 3.09077C21.7499 1.57212 20.5188 0.34082 19 0.34082V1.34082V2.34082C19.4141 2.34082 19.75 2.67661 19.75 3.09087L20.75 3.09082ZM19 1.34082V0.34082H17V1.34082V2.34082H19V1.34082ZM17 1.34082H16V3.02246H17H18V1.34082H17ZM17 3.02246H16C16 2.60825 16.3358 2.27246 16.75 2.27246V3.27246V4.27246C17.4404 4.27246 18 3.71282 18 3.02246H17ZM16.75 3.27246V2.27246H8.25V3.27246V4.27246H16.75V3.27246ZM8.25 3.27246L8.25 2.27246C8.66421 2.27246 9 2.60825 9 3.02246H8H7C7 3.71282 7.55964 4.27246 8.25 4.27246L8.25 3.27246ZM8 3.02246H9V1.34082H8H7V3.02246H8ZM8 1.34082V0.34082H6V1.34082V2.34082H8V1.34082Z" fill="url(#paint0_linear_50_28)" mask="url(#path-1-inside-1_50_28)"/>
<line x1="7.125" y1="5" x2="7.125" y2="7" stroke="#273B4B" stroke-width="0.25"/>
<path d="M7 11V13" stroke="#273B4B" stroke-width="0.25"/>
<line x1="7.125" y1="17" x2="7.125" y2="19" stroke="#273B4B" stroke-width="0.25"/>
<line x1="9" y1="5.825" x2="19" y2="5.825" stroke="url(#paint1_linear_50_28)" stroke-width="0.35"/>
<line x1="9" y1="11.825" x2="13" y2="11.825" stroke="url(#paint2_linear_50_28)" stroke-width="0.35"/>
<line x1="9" y1="12.825" x2="11" y2="12.825" stroke="url(#paint3_linear_50_28)" stroke-width="0.35"/>
<line x1="9" y1="6.825" x2="13" y2="6.825" stroke="url(#paint4_linear_50_28)" stroke-width="0.35"/>
<line x1="9" y1="18.825" x2="13" y2="18.825" stroke="url(#paint5_linear_50_28)" stroke-width="0.35"/>
<line x1="9" y1="17.825" x2="19" y2="17.825" stroke="url(#paint6_linear_50_28)" stroke-width="0.35"/>
<line x1="9" y1="17.825" x2="19" y2="17.825" stroke="url(#paint7_linear_50_28)" stroke-width="0.35"/>
<path d="M5.42899 9.21841V9.63672H2.57101V9.21841C2.57101 9.02422 2.26807 8.92697 2.09088 9.06428L1.08238 9.84587C0.97254 9.93099 0.97254 10.069 1.08238 10.1541L2.09088 10.9357C2.26806 11.073 2.57101 10.9758 2.57101 10.7816V10.3633H5.42899V10.7816C5.42899 10.9758 5.73193 11.073 5.90912 10.9357L6.91762 10.1541C7.02746 10.069 7.02746 9.931 6.91762 9.84588L5.90912 9.06429C5.73194 8.92697 5.42899 9.02422 5.42899 9.21841Z" fill="black"/>
<defs>
<linearGradient id="paint0_linear_50_28" x1="12.5" y1="0" x2="12.5" y2="24" gradientUnits="userSpaceOnUse">
<stop stop-color="#273B4B"/>
<stop offset="1" stop-color="#009688"/>
</linearGradient>
<linearGradient id="paint1_linear_50_28" x1="19" y1="6.5" x2="9" y2="6.5" gradientUnits="userSpaceOnUse">
<stop offset="0.1" stop-color="#009688"/>
<stop offset="1" stop-color="#00302C"/>
</linearGradient>
<linearGradient id="paint2_linear_50_28" x1="13" y1="12.5" x2="9" y2="12.5" gradientUnits="userSpaceOnUse">
<stop offset="0.1" stop-color="#009688"/>
<stop offset="1" stop-color="#00302C"/>
</linearGradient>
<linearGradient id="paint3_linear_50_28" x1="11" y1="13.5" x2="9" y2="13.5" gradientUnits="userSpaceOnUse">
<stop offset="0.1" stop-color="#009688"/>
<stop offset="1" stop-color="#00302C"/>
</linearGradient>
<linearGradient id="paint4_linear_50_28" x1="13" y1="7.5" x2="9" y2="7.5" gradientUnits="userSpaceOnUse">
<stop offset="0.1" stop-color="#009688"/>
<stop offset="1" stop-color="#00302C"/>
</linearGradient>
<linearGradient id="paint5_linear_50_28" x1="13" y1="19.5" x2="9" y2="19.5" gradientUnits="userSpaceOnUse">
<stop offset="0.1" stop-color="#009688"/>
<stop offset="1" stop-color="#00302C"/>
</linearGradient>
<linearGradient id="paint6_linear_50_28" x1="19" y1="18.5" x2="9" y2="18.5" gradientUnits="userSpaceOnUse">
<stop offset="0.1" stop-color="#009688"/>
<stop offset="1" stop-color="#00302C"/>
</linearGradient>
<linearGradient id="paint7_linear_50_28" x1="19" y1="18.5" x2="9" y2="18.5" gradientUnits="userSpaceOnUse">
<stop offset="0.1" stop-color="#009688"/>
<stop offset="1" stop-color="#00302C"/>
</linearGradient>
</defs>
</svg>
