<svg width="24" height="24" viewBox="0 0 24 24" fill="none" xmlns="http://www.w3.org/2000/svg">
<g clip-path="url(#clip0_14_61)">
<rect x="0.125" y="0.125" width="23.75" height="23.75" rx="3.875" stroke="#273B4B" stroke-width="0.25"/>
<line y1="5.825" x2="24" y2="5.825" stroke="url(#paint0_linear_14_61)" stroke-width="0.35"/>
<circle cx="15" cy="3" r="0.825" stroke="url(#paint1_linear_14_61)" stroke-width="0.35"/>
<circle cx="18" cy="3" r="0.825" stroke="url(#paint2_linear_14_61)" stroke-width="0.35"/>
<circle cx="21" cy="3" r="0.825" stroke="url(#paint3_linear_14_61)" stroke-width="0.35"/>
<path d="M12 7.125C16.357 7.125 19.875 10.4344 19.875 14.5C19.875 18.5656 16.357 21.875 12 21.875C7.64304 21.875 4.125 18.5656 4.125 14.5C4.125 10.4344 7.64304 7.125 12 7.125Z" stroke="#273B4B" stroke-width="0.25"/>
<rect x="2.125" y="2.125" width="4.75" height="1.75" rx="0.875" stroke="url(#paint4_linear_14_61)" stroke-width="0.25"/>
<path d="M6.1484 15.0841C6.1484 15.336 6.26062 16.0286 6.44014 16.3523C6.46189 16.3915 6.29986 16.3778 6.26066 16.4242C6.01273 16.7177 6.62829 17.1603 6.93897 17.4815C7.23258 17.7851 7.4473 18.2136 7.8522 18.4833C8.25448 18.7513 8.65578 18.8627 8.88709 18.9888C8.98345 19.0413 8.93911 19.1925 8.97768 19.2825C9.14566 19.6743 9.78819 19.6389 10.3405 19.796C10.864 19.9449 11.3668 20.0756 11.8743 20.0841C12.5254 20.095 13.3607 19.9403 13.8078 19.8175C14.2793 19.6879 14.7817 19.4384 15.3013 19.1954C15.7783 18.9723 16.2668 18.7194 16.7257 18.4157C17.1243 18.1519 17.4033 17.7712 17.6228 17.3579C17.8447 16.94 17.9095 16.5588 17.8585 16.3215C17.8351 16.2126 17.7049 16.1671 17.5881 16.1386C17.4714 16.1101 17.3434 16.1101 17.2381 16.1574C16.8005 16.3543 16.4403 16.7076 16.0084 16.9191C15.7977 17.0223 15.5705 17.0538 15.3612 16.9863C14.9274 16.8464 14.6694 16.3485 14.269 15.946C13.898 15.5729 13.3462 15.2461 12.8531 15.1488C12.4009 15.0596 11.8497 15.5503 11.0156 15.6429C10.8384 15.6625 10.7266 15.6849 10.6214 15.6586C10.1598 15.5429 9.97155 14.9565 9.62421 14.5375C9.30757 14.1555 8.91764 13.8146 8.46959 13.5797C8.26171 13.4707 8.02331 13.4336 7.80982 13.446C7.36843 13.4717 7.03175 13.9678 6.61771 14.187C6.39407 14.3054 6.34119 14.6134 6.21817 14.6858C6.1767 14.7102 6.15885 14.5567 6.20139 14.4549C6.39232 13.9978 6.94919 13.6722 7.30809 13.2838C7.38778 13.1976 7.50504 13.1641 7.571 13.1971C7.9489 13.386 7.57172 14.1516 7.45376 14.9325C7.36836 15.4978 7.47008 15.9345 7.60802 16.1417C7.7402 16.3402 7.96159 16.4542 8.15628 16.4814C8.6091 16.5448 8.57238 15.5787 8.63376 15.1011C8.69447 14.6287 8.88474 16.0514 8.99423 16.5888C9.07973 17.0084 9.29562 17.3192 9.48701 17.4329C9.90922 17.6836 10.4395 16.7983 10.7416 16.4193C10.7774 16.3744 10.8489 16.5556 10.8687 16.6811C10.9827 17.4023 10.2884 18.173 10.2674 18.38C10.257 18.4834 10.367 18.5783 10.4839 18.6278C10.6007 18.6774 10.7518 18.6774 10.8657 18.6226C11.3091 18.4095 11.3748 17.6683 11.567 17.1457C11.6083 17.0336 11.6889 16.947 11.7816 16.8917C11.8742 16.8364 11.9922 16.8219 12.0888 16.8655C12.5916 17.0925 12.3286 17.9716 12.3795 18.1665C12.4305 18.361 12.8179 18.3488 13.1348 18.3129C13.2744 18.2971 13.3547 18.2018 13.4147 18.0989C13.5407 17.8829 13.5421 17.3961 13.58 17.017C13.605 16.7672 13.8432 17.6036 14.0758 17.7708C14.4283 18.0241 14.9175 17.9868 15.2247 17.945C15.79 17.8681 16.1019 17.2536 16.3653 16.8234C16.619 16.4091 16.7898 15.9764 17.2032 15.7424C17.4215 15.6189 17.6147 15.4793 17.7688 15.3691C17.8382 15.3195 17.9477 15.4177 18.0079 15.3947C18.0682 15.3717 18.0907 15.2591 18.0571 15.1593C18.0236 15.0594 17.9333 14.9758 17.8214 15.0399C17.1638 15.4162 16.9751 15.9892 16.3801 16.2813C15.9242 16.5656 15.5926 16.6728 15.3638 16.7313C15.247 16.767 15.1289 16.8146 14.8249 16.9071" stroke="url(#paint5_linear_14_61)" stroke-width="2" stroke-linecap="round"/>
</g>
<defs>
<linearGradient id="paint0_linear_14_61" x1="24" y1="6.5" x2="0" y2="6.5" gradientUnits="userSpaceOnUse">
<stop offset="0.1" stop-color="#009688"/>
<stop offset="1" stop-color="#00302C"/>
</linearGradient>
<linearGradient id="paint1_linear_14_61" x1="15" y1="2" x2="15" y2="4" gradientUnits="userSpaceOnUse">
<stop offset="0.18" stop-color="#273B4B"/>
<stop offset="0.927885" stop-color="#009688"/>
</linearGradient>
<linearGradient id="paint2_linear_14_61" x1="18" y1="2" x2="18" y2="4" gradientUnits="userSpaceOnUse">
<stop offset="0.18" stop-color="#273B4B"/>
<stop offset="0.927885" stop-color="#009688"/>
</linearGradient>
<linearGradient id="paint3_linear_14_61" x1="21" y1="2" x2="21" y2="4" gradientUnits="userSpaceOnUse">
<stop offset="0.18" stop-color="#273B4B"/>
<stop offset="0.927885" stop-color="#009688"/>
</linearGradient>
<linearGradient id="paint4_linear_14_61" x1="4.5" y1="2" x2="4.5" y2="4" gradientUnits="userSpaceOnUse">
<stop stop-color="#009688"/>
<stop offset="1" stop-color="#00302C"/>
</linearGradient>
<linearGradient id="paint5_linear_14_61" x1="12.1106" y1="13.1846" x2="12.1106" y2="20.0846" gradientUnits="userSpaceOnUse">
<stop stop-color="#009688"/>
<stop offset="1" stop-color="#00302C"/>
</linearGradient>
<clipPath id="clip0_14_61">
<rect width="24" height="24" fill="white"/>
</clipPath>
</defs>
</svg>
